<?xml version="1.0" standalone="no"?><!DOCTYPE svg PUBLIC "-//W3C//DTD SVG 1.1//EN" "http://www.w3.org/Graphics/SVG/1.1/DTD/svg11.dtd"><svg t="1666508699144" class="icon" viewBox="0 0 1024 1024" version="1.1" xmlns="http://www.w3.org/2000/svg" p-id="1284" xmlns:xlink="http://www.w3.org/1999/xlink" width="200" height="200"><path d="M275.1 346.04c73.52 0 133.33-59.81 133.33-133.33S348.62 79.38 275.1 79.38s-133.33 59.81-133.33 133.33 59.81 133.33 133.33 133.33z m0-206.66c40.43 0 73.33 32.9 73.33 73.33s-32.9 73.33-73.33 73.33-73.33-32.89-73.33-73.33 32.89-73.33 73.33-73.33zM456.31 448.7v196.26c0 33.56-27.3 60.85-60.85 60.85h-26.02v214.17c0 16.57-13.43 30-30 30s-30-13.43-30-30V675.81c0-16.57 13.43-30 30-30h56.02c0.47 0 0.85-0.38 0.85-0.85V448.7c0-21.08-17.15-38.23-38.23-38.23H192.11c-21.08 0-38.23 17.15-38.23 38.23v196.26c0 0.47 0.38 0.85 0.85 0.85h56.02c16.57 0 30 13.43 30 30v244.17c0 16.57-13.43 30-30 30s-30-13.43-30-30V705.81h-26.02c-33.56 0-60.85-27.3-60.85-60.85V448.7c0-54.16 44.06-98.23 98.23-98.23h165.97c54.16 0 98.23 44.06 98.23 98.23z m275.87-146.77H900.1c16.57 0 30-13.43 30-30V104.01c0-16.57-13.43-30-30-30H732.18c-16.57 0-30 13.43-30 30v54.46h-49.63c-24.99 0-49.09 11.84-66.12 32.49-15.9 19.28-24.66 44.56-24.66 71.19v216.29h-56.13c-16.57 0-30 13.43-30 30s13.43 30 30 30h56.13v216.29c0 26.63 8.76 51.91 24.66 71.19 17.03 20.65 41.13 32.49 66.12 32.49h49.63v54.96c0 16.57 13.43 30 30 30H900.1c16.57 0 30-13.43 30-30V745.45c0-16.57-13.43-30-30-30H732.18c-16.57 0-30 13.43-30 30v52.97h-49.63c-16.69 0-30.78-20-30.78-43.68V538.45h80.41v54.21c0 16.57 13.43 30 30 30H900.1c16.57 0 30-13.43 30-30V424.74c0-16.57-13.43-30-30-30H732.18c-16.57 0-30 13.43-30 30v53.71h-80.41V262.16c0-23.68 14.1-43.68 30.78-43.68h49.63v53.46c0 16.57 13.43 30 30 30z m30 473.51H870.1v107.92H762.18V775.44z m0-320.72H870.1v107.92H762.18V454.72z m0-320.72H870.1v107.92H762.18V134z" p-id="1285" fill="#000000"></path></svg>